{"title":"The.Wedding.Pact.2014.BRRip.480p.x264.AAC-VYTO [P2PDL]","uid":10130500,"size":321657130,"categoryP":"video","categoryS":"movies","magnet":"?xt=urn:btih:4cca9dd9c1acba45c5018c6847a536400df00a84&amp;dn=The.Wedding.Pact.2014.BRRip.480p.x264.AAC-VYTO+%5BP2PDL%5D&amp;tr=udp%3A%2F%2Ftracker.openbittorrent.com%3A80&amp;tr=udp%3A%2F%2Fopen.demonii.com%3A1337&amp;tr=udp%3A%2F%2Ftracker.coppersurfer.tk%3A6969&amp;tr=udp%3A%2F%2Fexodus.desync.com%3A6969","seeders":1,"leechers":0,"uploader":"ValidusVyto","files":-1,"time":1399835594,"description":"____    ____ ____    ____ .___________.  ______   \n     /   /      /   / |           | /  __    \n    /   /      /   /  `---|  |----`|  |  |  | \n        /     _    _/       |  |     |  |  |  | \n       /        |  |         |  |     |  `--'  | \n    __/         |__|         |__|      ______/  \n                                                  \nPresenting Small Encodes with quality for years!\n                                                                                                   \n                                                                                                   \n\nThe.Wedding.Pact.2014.BRRip.480p.x264.AAC-VYTO\n\n\nGenre: Comedy | Romance &lt;a href=&quot;\nhttp://www.imdb.com/title/tt2199251/&quot; rel=&quot;nofollow&quot; target=&quot;_NEW&quot;&gt;\nhttp://www.imdb.com/title/tt2199251/&lt;/a&gt;\n\n\nGeneral\nFormat                         : MPEG-4\nFile size                      : 302 MiB\nDuration                       : 1h 30mn\nOverall bit rate               : 466 Kbps\n\nVideo\nFormat                         : AVC\nBit rate                       : 423 Kbps\nWidth                          : 720 pixels\nHeight                         : 400 pixels\nDisplay aspect ratio           : 16:9\nFrame rate mode                : Constant\nFrame rate                     : 23.976 fps\nBit depth                      : 8 bits\nStream size                    : 274 MiB (91%)\n\nAudio \nFormat                         : AAC\nBit rate mode                  : Variable\nBit rate                       : 39.9 Kbps\nChannel(s)                     : 2 channels\nChannel positions              : Front: L R\nSampling rate                  : 48.0 KHz\nStream size                    : 25.9 MiB (9%)\nLanguage                       : English\n\nSubtitle                       : Yes (English)\n &lt;a href=&quot;\nhttp://snapgr.am/images/2014/05/11/frame0.png&quot; rel=&quot;nofollow&quot; target=&quot;_NEW&quot;&gt;\nhttp://snapgr.am/images/2014/05/11/frame0.png&lt;/a&gt; &lt;a href=&quot;\nhttp://snapgr.am/images/2014/05/11/frame3.png&quot; rel=&quot;nofollow&quot; target=&quot;_NEW&quot;&gt;\nhttp://snapgr.am/images/2014/05/11/frame3.png&lt;/a&gt; &lt;a href=&quot;\nhttp://snapgr.am/images/2014/05/11/frame5.png&quot; rel=&quot;nofollow&quot; target=&quot;_NEW&quot;&gt;\nhttp://snapgr.am/images/2014/05/11/frame5.png&lt;/a&gt; &lt;a href=&quot;\nhttp://snapgr.am/images/2014/05/11/frame7.png&quot; rel=&quot;nofollow&quot; target=&quot;_NEW&quot;&gt;\nhttp://snapgr.am/images/2014/05/11/frame7.png&lt;/a&gt; &lt;a href=&quot;\nhttp://snapgr.am/images/2014/05/11/frame105334a.png&quot; rel=&quot;nofollow&quot; target=&quot;_NEW&quot;&gt;\nhttp://snapgr.am/images/2014/05/11/frame105334a.png&lt;/a&gt; &lt;a href=&quot;\nhttp://snapgr.am/images/2014/05/11/frame13.png&quot; rel=&quot;nofollow&quot; target=&quot;_NEW&quot;&gt;\nhttp://snapgr.am/images/2014/05/11/frame13.png&lt;/a&gt;\n\n----------------------------------------------------------------------------------------------------\n\n\nRecommend to you to use latest version of VLC player. Install K-Lite Codec Pack or shark007 codecs\nin case of any kind of problem in playback (For non-VLC Media Player users). Alternatively, install\nCore AVC codecs, the fastest decoder that there is coupled with Community Center Codec Pack and play\non Windows Media Player Classic. Check sample to be sure.\n\nEncoder Notes:Looking For Early Access To Anything You Can Provide DVDScr, R5, DVDR, BluRay, Direct\nAudio, Music Releases and Seedboxes. We require dedicated servers, so as to do more \nand fast releases of movies.\n\nEncode by VYTO @ P2PDL Torrent Sharing Community","torrent":{"xt":"urn:btih:4cca9dd9c1acba45c5018c6847a536400df00a84","amp;dn":"The.Wedding.Pact.2014.BRRip.480p.x264.AAC-VYTO+%5BP2PDL%5D","amp;tr":["udp%3A%2F%2Ftracker.openbittorrent.com%3A80","udp%3A%2F%2Fopen.demonii.com%3A1337","udp%3A%2F%2Ftracker.coppersurfer.tk%3A6969","udp%3A%2F%2Fexodus.desync.com%3A6969"],"infoHash":"4cca9dd9c1acba45c5018c6847a536400df00a84","infoHashBuffer":{"type":"Buffer","data":[76,202,157,217,193,172,186,69,197,1,140,104,71,165,54,64,13,240,10,132]},"announce":[],"urlList":[]}}